# xmcd
#
# Track frame offsets: 
#        150
#        11653
#        21193
#        31266
#        42171
#        53366
#        64328
#        77921
#        89688
#        101318
#        113951
#        124572
#        137345
#        149871
#        161072
#        172504
#        187575
#        197277
#        207030
#        217990
#        227677
#        237675
#        248488
#        260694
#        273004
#        282105
#        293753
#        302674
#
# Disc length: 4161 seconds
#
# Revision: 0
# Processed by: cddbd v1.5.1PL0 Copyright (c) Steve Scherf et al.
# Submitted via: ExactAudioCopy v0.95a5
#
DISCID=77103f1c
DTITLE=Various Artist - The 'D' Singles Volume 4 - Disc 2
DYEAR=2002
DGENRE=Country
TTITLE0=Musical Mountaineers - Bright Moon Of Kentucky
TTITLE1=Musical Mountaineers - Those Pretty Words
TTITLE2=Kirby London - I Don´t See You Around
TTITLE3=Kirby London - I´m Crying Over You
TTITLE4=Jimmy Blakley - Honky Tonk Princess
TTITLE5=Jimmy Blakley - Island Paradise
TTITLE6=Bill Mack - Waiting For The River To Rise
TTITLE7=Bill Mack - The Smoke, The Bottle, The Wine
TTITLE8=Treece-Reece Trio - When The Hurt Hurts No More
TTITLE9=Treece-Reece Trio - Teen Age Loneliness
TTITLE10=Johnny Nelms - Old Broken Heart
TTITLE11=Johnny Nelms - I´ve Never Had The Blues
TTITLE12=Jim Busby - Same Old Blues
TTITLE13=Jim Busby - Take Them Back
TTITLE14=Ernie Kucera - Dona Polka
TTITLE15=Ernie Kucera - Wayside Waltz
TTITLE16=William Penix - Blue Wedding Bells Ringing
TTITLE17=William Penix - You Take The Medicine
TTITLE18=Perk Williams - What More
TTITLE19=Perk Williams - Are You Trying To Tell Me Goodbye
TTITLE20=Bill Carter - Shot Four Times And Dy´in
TTITLE21=Bill Carter - Stronger Shake Hands With A Fool
TTITLE22=Dessie Faulkner - Trying To Forget
TTITLE23=Dessie Faulkner - Lost Without You
TTITLE24=Johnny Dollar - Crawling Back To You
TTITLE25=Johnny Dollar - What A World Of Difference
TTITLE26=Herby Remington - Fiddlesteele
TTITLE27=Herby Remington - Soft Shoes Slide
EXTD=
EXTT0=
EXTT1=
EXTT2=
EXTT3=
EXTT4=
EXTT5=
EXTT6=
EXTT7=
EXTT8=
EXTT9=
EXTT10=
EXTT11=
EXTT12=
EXTT13=
EXTT14=
EXTT15=
EXTT16=
EXTT17=
EXTT18=
EXTT19=
EXTT20=
EXTT21=
EXTT22=
EXTT23=
EXTT24=
EXTT25=
EXTT26=
EXTT27=
PLAYORDER=
